<?xml version="1.0" encoding="utf-8"?>
<!-- Generator: Adobe Illustrator 16.0.0, SVG Export Plug-In . SVG Version: 6.00 Build 0)  -->
<!DOCTYPE svg PUBLIC "-//W3C//DTD SVG 1.1//EN" "http://www.w3.org/Graphics/SVG/1.1/DTD/svg11.dtd">
<svg version="1.1" id="Layer_5" xmlns="http://www.w3.org/2000/svg" xmlns:xlink="http://www.w3.org/1999/xlink" x="0px" y="0px"
	 width="356.007px" height="332.168px" viewBox="0 0 356.007 332.168" enable-background="new 0 0 356.007 332.168"
	 xml:space="preserve">
<linearGradient id="SVGID_1_" gradientUnits="userSpaceOnUse" x1="30.3926" y1="70.7437" x2="148.1494" y2="274.7045" gradientTransform="matrix(0.7071 0.7071 -0.7071 0.7071 152.287 -54.3442)">
	<stop  offset="0" style="stop-color:#F0542C"/>
	<stop  offset="1" style="stop-color:#F47D2C"/>
</linearGradient>
<path fill="url(#SVGID_1_)" d="M131.15,217.244c-0.666-0.665-1.364-1.276-2.084-1.847l-57.564-57.563
	c-0.57-0.721-1.182-1.42-1.847-2.085c-0.371-0.371-0.754-0.722-1.143-1.063c-18.844-21.374-18.066-54.101,2.355-74.523
	c21.244-21.243,55.808-21.243,77.051,0c2.625,2.625,4.979,5.506,7,8.565l2.501,3.15c0.501,0.613,1.038,1.208,1.609,1.78
	c9.243,9.243,24.229,9.243,33.473,0c9.066-9.067,9.232-23.657,0.512-32.934c-3.455-4.974-7.377-9.666-11.684-13.973
	c-19.215-19.215-44.763-29.797-71.936-29.797S56.673,27.536,37.458,46.752C18.241,65.969,7.66,91.515,7.663,118.688
	c-0.001,27.172,10.58,52.721,29.794,71.936l16.619,16.616l0.183-0.183l41.568,41.568c0.57,0.723,1.184,1.424,1.853,2.09
	c9.241,9.244,24.228,9.244,33.471,0C140.394,241.474,140.394,226.487,131.15,217.244z"/>
<path fill="none" stroke="#000000" stroke-miterlimit="10" d="M177.576,297.271"/>
<path fill="none" stroke="#000000" stroke-miterlimit="10" d="M301.31,173.536"/>
<path fill="none" stroke="#000000" stroke-miterlimit="10" d="M177.576,297.271"/>
<linearGradient id="SVGID_2_" gradientUnits="userSpaceOnUse" x1="83.8062" y1="28.3223" x2="287.271" y2="28.3223" gradientTransform="matrix(0.7071 0.7071 -0.7071 0.7071 152.287 -54.3442)">
	<stop  offset="0" style="stop-color:#F99C2F"/>
	<stop  offset="1" style="stop-color:#FFCF39"/>
</linearGradient>
<path fill="url(#SVGID_2_)" d="M343.739,118.325c0.002-27.173-10.58-52.72-29.796-71.937
	c-19.215-19.215-44.763-29.797-71.937-29.797c-27.173,0-52.721,10.583-71.936,29.798c-4.307,4.307-8.228,8.999-11.683,13.973
	c-8.722,9.277-8.556,23.866,0.512,32.934c9.243,9.243,24.229,9.243,33.472,0c0.572-0.572,1.108-1.167,1.609-1.78l2.501-3.15
	c2.02-3.06,4.375-5.941,7-8.566c21.243-21.243,55.808-21.243,77.05,0c21.244,21.244,21.243,55.808,0,77.051l-16.617,16.616
	l33.41,33.411l16.617-16.617C333.157,171.046,343.74,145.498,343.739,118.325z"/>
<linearGradient id="SVGID_3_" gradientUnits="userSpaceOnUse" x1="263.5112" y1="255.417" x2="263.5112" y2="33.0942" gradientTransform="matrix(0.7071 0.7071 -0.7071 0.7071 152.287 -54.3442)">
	<stop  offset="0" style="stop-color:#BA2789"/>
	<stop  offset="1" style="stop-color:#ED1848"/>
</linearGradient>
<path fill="url(#SVGID_3_)" d="M313.127,190.71c0.723-0.571,1.423-1.185,2.091-1.852c9.242-9.243,9.242-24.229-0.001-33.473
	s-24.229-9.242-33.472,0c-0.666,0.666-1.277,1.364-1.847,2.085L160.096,277.273c-0.721,0.57-1.419,1.182-2.085,1.848
	c-9.243,9.242-9.243,24.229,0,33.471c9.244,9.244,24.229,9.244,33.473,0.001c0.666-0.667,1.28-1.368,1.852-2.091L313.127,190.71z"/>
<path fill="none" stroke="#000000" stroke-miterlimit="10" d="M175.947,296.927"/>
<path fill="none" stroke="#000000" stroke-miterlimit="10" d="M52.212,173.192"/>
<path fill="none" stroke="#000000" stroke-miterlimit="10" d="M175.947,296.927"/>
</svg>
